<svg id="Calque_1" data-name="Calque 1" xmlns="http://www.w3.org/2000/svg" viewBox="0 0 320.4 256.12"><defs><style>.cls-1{fill:#303030;}</style></defs><path class="cls-1" d="M311,95.56C298.5,70.45,275.63,57.61,253.3,50.44s-45.66-10.19-66.74-22.16c-13.43-7.63-25.71-18.77-39.72-24.35A55,55,0,0,0,102,5.73C63.46,24.53,44.33,79.12,11.87,109.27c-16,22.68-15.79,61.67.54,84C24.61,210,43,216.4,60.59,218.39s35.49.28,52.93,4.07c31.37,6.81,59.83,31,91.58,33.46,13.43,1,26.91-1.95,39.8-7,25-9.78,49-28.33,63.24-56.87S325.29,124.12,311,95.56Zm-174.5,118c-10-4.69-17.92-13.44-25.68-21.07A416.33,416.33,0,0,0,58.36,148c-4.17-3.22-6.09-5.9-6.26-8.17-.31-4.3,2.74-7.3,8.42-9.82,15.43-6.92,31.27-14.27,48.36-15.82,15.12-1,22.6-12.48,20.12-27-1.75-10.27-10.83-21.75-22.46-16-16.48,9.16-30.15,20.46-44.28,32.92-10,9-22.57,23.31-22.58,37.09a14.57,14.57,0,0,0,2.62,7.79,327.92,327.92,0,0,0,24.51,31.8c4.79,5,18.7,27.94-.18,22.67C54.4,200,38.43,191,31.91,179.91c-11.23-19.18.17-41.55,9.52-59.71C53.75,96.27,65.91,69,82.27,48.12c25-31.93,53.47,6.4,58.33,32.53,3.89,20.94-4.69,37.45-21.91,49.58-8.32,6.05-16.37,12.56-24.34,19.08-3.58,2.82-6.2,6.22-5.19,10.87,1,4.46,3.91,5.2,10.09,4,10.71-1.35,20.92-2.39,31.72-1.05,13.15,2.52,20.71,17.41,21.8,29.33C153.69,202.55,151,220.31,136.54,213.51Zm51-94.47c10.88,8.39,21.67,16.44,34.15,22.33a22.81,22.81,0,0,1,3.44,39.26c-4.11,2.9-6.15,4.29-10.19,6.89-22.07,14.55-3.12,56.53,16.46,29.3,11.05-14.28,21.73-28.82,32.23-43.5,3.71-4.23,12.69-16.53,20.94-13.73,5.53,1.88,7.52,7.3,5.21,12.82-9.93,23.67-45.4,55.73-69.94,62.2-42.92,11.3-50.22-81.36-52.36-105.32-1.63-18.24-6.76-56,4.77-72.87,8.7-12.74,22.08-6.77,35.34-2.93,28.15,8.14,70.93,26.55,81.87,56.19,5.06,13.72-5.27,26.14-19.19,25.25C255,134,252,112.48,250,100.57a78.15,78.15,0,0,0-5.84-20.12C240.51,71.71,232,65.8,227,69.52c-13.89,10.67-27.37,20.54-42.43,29.56C178.81,102.71,179.75,112.82,187.58,119Z" transform="translate(0 0)"/></svg>