<svg id="ad02f3cb-b15b-4c97-92fc-5e906df09d60" data-name="Calque 1" xmlns="http://www.w3.org/2000/svg" viewBox="0 0 328.67 328.65"><defs><style>.a2d4a1ca-8b91-414c-a5a7-f2e8a155c6f6{fill:#303030;}</style></defs><path class="a2d4a1ca-8b91-414c-a5a7-f2e8a155c6f6" d="M78.46,43.83C75,38.29,76.07,32.44,81.11,29.27a9.33,9.33,0,0,1,11.14.36l-2.38,3.06a5.65,5.65,0,0,0-6.78-.29c-3.16,2-3.72,5.59-1.34,9.36s5.87,4.85,9,2.86c2-1.24,3.81-3.52,2.33-7l-4.26,2.69L87,37.4l7.26-4.57,6.06,9.61-2.9,1.82L96,42.65a6.76,6.76,0,0,1-3.46,5.23C87.72,50.93,82,49.39,78.46,43.83Z" transform="translate(-4.32 -4.36)"/><path class="a2d4a1ca-8b91-414c-a5a7-f2e8a155c6f6" d="M94.59,22l12.68-5.79,1.44,3.16-9.15,4.17,2.07,4.53,8.53-3.89,1.44,3.16-8.53,3.89,2.29,5,9.15-4.17L116,35.26,103.26,41Z" transform="translate(-4.32 -4.36)"/><path class="a2d4a1ca-8b91-414c-a5a7-f2e8a155c6f6" d="M118.16,16.1l-6.18,2-1-3.3L127,9.66,128.05,13l-6.15,1.94,5.27,16.63-3.74,1.19Z" transform="translate(-4.32 -4.36)"/><path class="a2d4a1ca-8b91-414c-a5a7-f2e8a155c6f6" d="M139.68,7.08l3.83-.64,3.43,20.63-3.84.64Z" transform="translate(-4.32 -4.36)"/><path class="a2d4a1ca-8b91-414c-a5a7-f2e8a155c6f6" d="M149.32,5.46l4-.27L163,18.85l-1-14.24,3.86-.25,1.39,20.86-4,.27L153.63,11.8l1,14.27-3.88.25Z" transform="translate(-4.32 -4.36)"/><path class="a2d4a1ca-8b91-414c-a5a7-f2e8a155c6f6" d="M185.56,8.88l-6.44-.75.41-3.44,16.74,1.95-.41,3.44-6.4-.75-2,17.32-3.91-.45Z" transform="translate(-4.32 -4.36)"/><path class="a2d4a1ca-8b91-414c-a5a7-f2e8a155c6f6" d="M196.84,17.25c1.61-6.37,6.63-9.6,12.39-8.14s8.69,6.68,7.06,13.08-6.65,9.57-12.44,8.1S195.23,23.59,196.84,17.25Zm7.92,9.44c3.67.94,6.65-1.17,7.74-5.46s-.52-7.59-4.18-8.52-6.61,1.14-7.72,5.5S201.14,25.78,204.76,26.69Z" transform="translate(-4.32 -4.36)"/><path class="a2d4a1ca-8b91-414c-a5a7-f2e8a155c6f6" d="M219,26.28,224.15,14l3.59,1.49-5,11.91c-1.25,3-1.08,4.88,1.94,6.14s4.49,0,5.73-2.92l4.95-11.94L239,20.11,233.93,32.3c-2.09,5-5.69,6.5-10.57,4.47S217,31.23,219,26.28Z" transform="translate(-4.32 -4.36)"/><path class="a2d4a1ca-8b91-414c-a5a7-f2e8a155c6f6" d="M238.64,31.48c3.33-5.63,9-7.33,14.16-4.3a9.31,9.31,0,0,1,4.76,10.06l-3.8-.71a5.66,5.66,0,0,0-2.85-6.16c-3.21-1.9-6.66-.75-8.93,3.08s-1.62,7.44,1.59,9.34a5.67,5.67,0,0,0,6.77-.48l2.47,3a9.36,9.36,0,0,1-11.12.69C236.58,43,235.3,37.13,238.64,31.48Z" transform="translate(-4.32 -4.36)"/><path class="a2d4a1ca-8b91-414c-a5a7-f2e8a155c6f6" d="M265,35.48l3,2.44-5.24,6.51,7,5.64L275,43.56,278,46l-13.1,16.3-3-2.44,5.62-7-7-5.64-5.62,7-3-2.43Z" transform="translate(-4.32 -4.36)"/><path class="a2d4a1ca-8b91-414c-a5a7-f2e8a155c6f6" d="M281.36,63l5,5.63-5.65,5-5-5.64Z" transform="translate(-4.32 -4.36)"/><path class="a2d4a1ca-8b91-414c-a5a7-f2e8a155c6f6" d="M293.74,78.8c5.54-3.47,11.39-2.36,14.55,2.69a9.32,9.32,0,0,1-.39,11.13l-3-2.39a5.65,5.65,0,0,0,.3-6.78c-2-3.16-5.57-3.72-9.35-1.36s-4.86,5.86-2.87,9c1.22,1.95,3.51,3.82,7,2.34l-2.68-4.27,2.94-1.84,4.55,7.27-9.62,6-1.82-2.89,1.62-1.41a6.74,6.74,0,0,1-5.22-3.47C286.62,88,288.17,82.29,293.74,78.8Z" transform="translate(-4.32 -4.36)"/><path class="a2d4a1ca-8b91-414c-a5a7-f2e8a155c6f6" d="M315.52,95l5.74,12.7-3.15,1.43L314,100l-4.54,2,3.86,8.55L310.13,112l-3.86-8.54-5,2.28,4.14,9.16-3.15,1.43-5.75-12.7Z" transform="translate(-4.32 -4.36)"/><path class="a2d4a1ca-8b91-414c-a5a7-f2e8a155c6f6" d="M321.38,118.57l-1.95-6.18,3.31-1,5.06,16.08-3.31,1-1.93-6.15-16.65,5.23-1.18-3.75Z" transform="translate(-4.32 -4.36)"/><path class="a2d4a1ca-8b91-414c-a5a7-f2e8a155c6f6" d="M330.33,140.14,331,144l-20.63,3.36-.63-3.84Z" transform="translate(-4.32 -4.36)"/><path class="a2d4a1ca-8b91-414c-a5a7-f2e8a155c6f6" d="M331.92,149.74l.26,4-13.67,9.69,14.23-.91.25,3.86-20.86,1.34-.26-4,13.7-9.63-14.26.92-.25-3.88Z" transform="translate(-4.32 -4.36)"/><path class="a2d4a1ca-8b91-414c-a5a7-f2e8a155c6f6" d="M328.41,186l.78-6.44,3.43.42-2,16.74-3.44-.42.77-6.4-17.32-2.08.46-3.9Z" transform="translate(-4.32 -4.36)"/><path class="a2d4a1ca-8b91-414c-a5a7-f2e8a155c6f6" d="M320,197.25c6.37,1.63,9.58,6.65,8.11,12.41s-6.7,8.67-13.09,7S305.48,210,307,204.23,313.67,195.63,320,197.25Zm-9.45,7.9c-.94,3.66,1.16,6.65,5.44,7.75s7.59-.5,8.53-4.16S323.4,202.13,319,201,311.48,201.54,310.55,205.15Z" transform="translate(-4.32 -4.36)"/><path class="a2d4a1ca-8b91-414c-a5a7-f2e8a155c6f6" d="M310.92,219.42l12.32,5.15-1.5,3.58-11.9-5c-3-1.26-4.88-1.1-6.14,1.92s-.05,4.5,2.91,5.73l11.93,5-1.5,3.57-12.18-5.09c-5-2.1-6.47-5.7-4.44-10.57S306,217.35,310.92,219.42Z" transform="translate(-4.32 -4.36)"/><path class="a2d4a1ca-8b91-414c-a5a7-f2e8a155c6f6" d="M305.66,239.05c5.62,3.35,7.3,9.06,4.26,14.18A9.35,9.35,0,0,1,299.83,258l.73-3.81a5.67,5.67,0,0,0,6.17-2.83c1.91-3.21.77-6.66-3.06-8.94s-7.43-1.65-9.34,1.56a5.66,5.66,0,0,0,.46,6.77l-3,2.46a9.34,9.34,0,0,1-.66-11.13C294.18,237,300,235.69,305.66,239.05Z" transform="translate(-4.32 -4.36)"/><path class="a2d4a1ca-8b91-414c-a5a7-f2e8a155c6f6" d="M301.59,265.32l-2.44,3-6.5-5.25-5.65,7,6.49,5.26-2.44,3L274.8,265.21l2.44-3,7,5.64,5.66-7-7-5.64,2.44-3Z" transform="translate(-4.32 -4.36)"/><path class="a2d4a1ca-8b91-414c-a5a7-f2e8a155c6f6" d="M274,281.67l-5.65,5-5-5.66,5.65-5Z" transform="translate(-4.32 -4.36)"/><path class="a2d4a1ca-8b91-414c-a5a7-f2e8a155c6f6" d="M258.21,294c3.46,5.55,2.33,11.4-2.72,14.55a9.33,9.33,0,0,1-11.13-.42l2.4-3a5.67,5.67,0,0,0,6.77.32c3.17-2,3.74-5.57,1.38-9.35s-5.84-4.87-9-2.9c-2,1.22-3.83,3.5-2.37,7l4.28-2.67,1.83,2.94-7.28,4.54-6-9.64,2.9-1.8,1.4,1.61a6.76,6.76,0,0,1,3.48-5.21C249,286.85,254.73,288.41,258.21,294Z" transform="translate(-4.32 -4.36)"/><path class="a2d4a1ca-8b91-414c-a5a7-f2e8a155c6f6" d="M242,315.73l-12.72,5.71-1.42-3.16,9.17-4.12-2-4.54-8.55,3.84L225,310.3l8.55-3.84-2.27-5.06-9.17,4.12-1.42-3.16,12.72-5.71Z" transform="translate(-4.32 -4.36)"/><path class="a2d4a1ca-8b91-414c-a5a7-f2e8a155c6f6" d="M218.35,321.52l6.18-1.92,1,3.31-16.1,5-1-3.31,6.16-1.92L209.41,306l3.75-1.17Z" transform="translate(-4.32 -4.36)"/><path class="a2d4a1ca-8b91-414c-a5a7-f2e8a155c6f6" d="M196.76,330.43l-3.83.62-3.32-20.66,3.83-.61Z" transform="translate(-4.32 -4.36)"/><path class="a2d4a1ca-8b91-414c-a5a7-f2e8a155c6f6" d="M187.13,332l-4,.25-9.64-13.7.87,14.24-3.86.23-1.28-20.87,4-.24,9.58,13.73L182,311.35l3.87-.23Z" transform="translate(-4.32 -4.36)"/><path class="a2d4a1ca-8b91-414c-a5a7-f2e8a155c6f6" d="M150.92,328.39l6.43.79-.42,3.44-16.74-2.05.42-3.44,6.4.78,2.11-17.31,3.91.47Z" transform="translate(-4.32 -4.36)"/><path class="a2d4a1ca-8b91-414c-a5a7-f2e8a155c6f6" d="M139.67,319.94c-1.65,6.37-6.69,9.57-12.44,8.08s-8.66-6.73-7-13.12,6.71-9.53,12.49-8S141.31,313.61,139.67,319.94Zm-7.88-9.48c-3.66-.95-6.65,1.14-7.77,5.43s.48,7.59,4.14,8.54,6.62-1.1,7.75-5.46S135.41,311.4,131.79,310.46Z" transform="translate(-4.32 -4.36)"/><path class="a2d4a1ca-8b91-414c-a5a7-f2e8a155c6f6" d="M117.53,310.8l-5.18,12.3-3.58-1.51,5-11.89c1.27-3,1.11-4.87-1.91-6.14s-4.49-.07-5.74,2.88l-5,11.92-3.57-1.5,5.13-12.17c2.12-5,5.72-6.46,10.59-4.41S119.61,305.86,117.53,310.8Z" transform="translate(-4.32 -4.36)"/><path class="a2d4a1ca-8b91-414c-a5a7-f2e8a155c6f6" d="M97.93,305.48c-3.36,5.61-9.08,7.27-14.18,4.21A9.33,9.33,0,0,1,79,299.6l3.81.74a5.65,5.65,0,0,0,2.8,6.18c3.2,1.92,6.66.79,8.95-3s1.67-7.43-1.54-9.35a5.66,5.66,0,0,0-6.76.44l-2.46-3A9.34,9.34,0,0,1,95,291C100.06,294,101.3,299.85,97.93,305.48Z" transform="translate(-4.32 -4.36)"/><path class="a2d4a1ca-8b91-414c-a5a7-f2e8a155c6f6" d="M71.64,301.32l-3-2.45,5.27-6.47-7-5.68-5.27,6.48-3-2.45,13.19-16.21,3,2.45-5.65,6.95,7,5.68,5.66-6.95,3,2.45Z" transform="translate(-4.32 -4.36)"/><path class="a2d4a1ca-8b91-414c-a5a7-f2e8a155c6f6" d="M55.38,273.71l-5-5.67,5.68-5,5,5.67Z" transform="translate(-4.32 -4.36)"/><path class="a2d4a1ca-8b91-414c-a5a7-f2e8a155c6f6" d="M43.09,257.87c-5.56,3.45-11.41,2.3-14.54-2.76A9.33,9.33,0,0,1,29,244l3,2.4a5.65,5.65,0,0,0-.33,6.78c2,3.17,5.56,3.75,9.34,1.41s4.9-5.84,2.93-9c-1.22-2-3.49-3.84-6.95-2.38l2.65,4.28-2.94,1.83L32.21,242l9.65-6,1.81,2.91L42,240.3a6.79,6.79,0,0,1,5.21,3.51C50.26,248.66,48.68,254.41,43.09,257.87Z" transform="translate(-4.32 -4.36)"/><path class="a2d4a1ca-8b91-414c-a5a7-f2e8a155c6f6" d="M21.4,241.54l-5.67-12.73,3.17-1.41L23,236.58l4.55-2L23.72,226l3.16-1.41,3.82,8.56,5.06-2.25-4.09-9.18,3.16-1.41L40.5,233Z" transform="translate(-4.32 -4.36)"/><path class="a2d4a1ca-8b91-414c-a5a7-f2e8a155c6f6" d="M15.69,218l1.91,6.19-3.31,1-5-16.1,3.31-1,1.9,6.16,16.66-5.15,1.16,3.75Z" transform="translate(-4.32 -4.36)"/><path class="a2d4a1ca-8b91-414c-a5a7-f2e8a155c6f6" d="M6.84,196.33l-.61-3.84,20.66-3.26.6,3.84Z" transform="translate(-4.32 -4.36)"/><path class="a2d4a1ca-8b91-414c-a5a7-f2e8a155c6f6" d="M5.31,186.73l-.24-4,13.72-9.61L4.55,174l-.23-3.86,20.87-1.24.24,4-13.75,9.55,14.26-.84.23,3.88Z" transform="translate(-4.32 -4.36)"/><path class="a2d4a1ca-8b91-414c-a5a7-f2e8a155c6f6" d="M9,150.49l-.81,6.42-3.43-.43,2.09-16.72,3.44.43-.8,6.4,17.3,2.16-.49,3.9Z" transform="translate(-4.32 -4.36)"/><path class="a2d4a1ca-8b91-414c-a5a7-f2e8a155c6f6" d="M17.47,139.27c-6.35-1.67-9.54-6.71-8-12.46s6.75-8.64,13.14-7,9.5,6.74,8,12.51S23.8,140.93,17.47,139.27ZM27,131.42c1-3.66-1.12-6.65-5.4-7.78s-7.6.45-8.56,4.11,1.09,6.62,5.44,7.76S26,135,27,131.42Z" transform="translate(-4.32 -4.36)"/><path class="a2d4a1ca-8b91-414c-a5a7-f2e8a155c6f6" d="M26.67,117.17,14.38,112l1.52-3.58,11.88,5c3,1.28,4.87,1.12,6.14-1.89s.09-4.5-2.87-5.75l-11.9-5,1.51-3.56,12.15,5.15c5,2.13,6.45,5.74,4.39,10.6S31.6,119.26,26.67,117.17Z" transform="translate(-4.32 -4.36)"/><path class="a2d4a1ca-8b91-414c-a5a7-f2e8a155c6f6" d="M32,97.58c-5.61-3.37-7.26-9.09-4.18-14.19A9.32,9.32,0,0,1,38,78.71l-.75,3.8A5.65,5.65,0,0,0,31,85.3c-1.93,3.2-.81,6.66,3,9s7.42,1.68,9.35-1.52A5.66,5.66,0,0,0,43,86l3-2.45a9.33,9.33,0,0,1,.6,11.12C43.5,99.74,37.66,101,32,97.58Z" transform="translate(-4.32 -4.36)"/><path class="a2d4a1ca-8b91-414c-a5a7-f2e8a155c6f6" d="M36.25,71.31l2.46-3,6.47,5.29,5.69-7-6.46-5.29,2.45-3L63.05,71.56l-2.46,3-6.94-5.67-5.7,7,6.95,5.68-2.46,3Z" transform="translate(-4.32 -4.36)"/><path class="a2d4a1ca-8b91-414c-a5a7-f2e8a155c6f6" d="M64,55.1l5.68-5,5,5.69-5.68,5Z" transform="translate(-4.32 -4.36)"/></svg>