<svg id="Calque_1" data-name="Calque 1" xmlns="http://www.w3.org/2000/svg" viewBox="0 0 337.32 337.35"><defs><style>.cls-1{font-size:30px;fill:#303030;font-family:HKGrotesk-Bold, HK Grotesk;font-weight:700;}</style></defs><text class="cls-1" transform="matrix(0.85, -0.53, 0.53, 0.85, 83.05, 53.31)">G</text><text class="cls-1" transform="matrix(0.91, -0.41, 0.41, 0.91, 101.43, 41.88)">E</text><text class="cls-1" transform="translate(116.93 34.79) rotate(-17.61)">T</text><text class="cls-1" transform="translate(133.51 29.74) rotate(-12.58)"> </text><text class="cls-1" transform="translate(141.12 28.04) rotate(-9.43)">I</text><text class="cls-1" transform="translate(148.7 26.46) rotate(-3.81)">N</text><text class="cls-1" transform="translate(169.12 25.4) rotate(1.71)"> </text><text class="cls-1" transform="translate(176.77 25.41) rotate(6.67)">T</text><text class="cls-1" transform="translate(193.13 27.08) rotate(14.24)">O</text><text class="cls-1" transform="translate(214.45 32.57) rotate(22.55)">U</text><text class="cls-1" transform="translate(232.31 39.89) rotate(30.6)">C</text><text class="cls-1" transform="translate(250.29 50.52) rotate(38.83)">H</text><text class="cls-1" transform="matrix(0.71, 0.7, -0.7, 0.71, 266.12, 63.65)"> </text><text class="cls-1" transform="translate(271.69 69.02) rotate(48.23)">•</text><text class="cls-1" transform="translate(279.27 77.6) rotate(52.05)"> </text><text class="cls-1" transform="translate(284.25 83.37) rotate(57.92)">G</text><text class="cls-1" transform="translate(295.64 101.78) rotate(65.65)">E</text><text class="cls-1" transform="matrix(0.3, 0.95, -0.95, 0.3, 302.69, 117.31)">T</text><text class="cls-1" transform="translate(307.69 133.9) rotate(77.57)"> </text><text class="cls-1" transform="matrix(0.16, 0.99, -0.99, 0.16, 309.37, 141.52)">I</text><text class="cls-1" transform="matrix(0.06, 1, -1, 0.06, 310.93, 149.08)">N</text><text class="cls-1" transform="matrix(-0.03, 1, -1, -0.03, 311.94, 169.51)"> </text><text class="cls-1" transform="matrix(-0.12, 0.99, -0.99, -0.12, 311.9, 177.18)">T</text><text class="cls-1" transform="translate(310.18 193.53) rotate(104.39)">O</text><text class="cls-1" transform="matrix(-0.39, 0.92, -0.92, -0.39, 304.65, 214.83)">U</text><text class="cls-1" transform="translate(297.26 232.69) rotate(120.77)">C</text><text class="cls-1" transform="matrix(-0.63, 0.78, -0.78, -0.63, 286.6, 250.61)">H</text><text class="cls-1" transform="matrix(-0.7, 0.71, -0.71, -0.7, 273.43, 266.41)"> </text><text class="cls-1" transform="translate(268.03 271.98) rotate(138.4)">•</text><text class="cls-1" transform="translate(259.43 279.54) rotate(142.21)"> </text><text class="cls-1" transform="translate(253.66 284.48) rotate(148.07)">G</text><text class="cls-1" transform="translate(235.21 295.83) rotate(155.8)">E</text><text class="cls-1" transform="matrix(-0.95, 0.3, -0.3, -0.95, 219.67, 302.84)">T</text><text class="cls-1" transform="matrix(-0.98, 0.21, -0.21, -0.98, 203.05, 307.8)"> </text><text class="cls-1" transform="translate(195.43 309.46) rotate(170.89)">I</text><text class="cls-1" transform="translate(187.86 311) rotate(176.5)">N</text><text class="cls-1" transform="translate(167.42 311.95) rotate(-177.98)"> </text><text class="cls-1" transform="matrix(-0.99, -0.12, 0.12, -0.99, 159.79, 311.9)">T</text><text class="cls-1" transform="matrix(-0.97, -0.25, 0.25, -0.97, 143.43, 310.13)">O</text><text class="cls-1" transform="translate(122.14 304.53) rotate(-157.14)">U</text><text class="cls-1" transform="translate(104.31 297.1) rotate(-149.08)">C</text><text class="cls-1" transform="matrix(-0.78, -0.63, 0.63, -0.78, 86.39, 286.38)">H</text><text class="cls-1" transform="matrix(-0.71, -0.7, 0.7, -0.71, 70.63, 273.17)"> </text><text class="cls-1" transform="translate(65.1 267.77) rotate(-131.46)">•</text><text class="cls-1" transform="translate(57.56 259.15) rotate(-127.64)"> </text><text class="cls-1" transform="matrix(-0.53, -0.85, 0.85, -0.53, 52.61, 253.35)">G</text><text class="cls-1" transform="translate(41.32 234.86) rotate(-114.03)">E</text><text class="cls-1" transform="translate(34.36 219.32) rotate(-107.14)">T</text><text class="cls-1" transform="matrix(-0.21, -0.98, 0.98, -0.21, 29.45, 202.69)"> </text><text class="cls-1" transform="translate(27.81 195.06) rotate(-98.96)">I</text><text class="cls-1" transform="matrix(-0.06, -1, 1, -0.06, 26.29, 187.5)">N</text><text class="cls-1" transform="matrix(0.04, -1, 1, 0.04, 25.39, 167.06)"> </text><text class="cls-1" transform="translate(25.47 159.41) rotate(-82.87)">T</text><text class="cls-1" transform="translate(27.27 143.06) rotate(-75.29)">O</text><text class="cls-1" transform="translate(32.93 121.8) rotate(-66.99)">U</text><text class="cls-1" transform="matrix(0.52, -0.86, 0.86, 0.52, 40.4, 103.99)">C</text><text class="cls-1" transform="matrix(0.63, -0.77, 0.77, 0.63, 51.17, 86.09)">H</text><text class="cls-1" transform="translate(64.43 70.37) rotate(-45.12)"> </text><text class="cls-1" transform="translate(69.86 64.83) rotate(-41.3)">•</text></svg>