<svg id="a7ff99e0-5376-4d04-8d81-9cfb482f8f7b" data-name="Calque 1" xmlns="http://www.w3.org/2000/svg" viewBox="0 0 311.03 162.13"><defs><style>.a4fcbfc3-6753-457b-a567-86d6f68d1fc1{fill:none;stroke:#7287ff;stroke-linecap:round;stroke-miterlimit:10;stroke-width:16px;}</style></defs><path class="a4fcbfc3-6753-457b-a567-86d6f68d1fc1" d="M120.42,15.73A140.39,140.39,0,0,0,23.07,67c-9.31,11.56-17,26-14.63,40.64,2.16,13.24,12.4,24,24.31,30.23s25.42,8.41,38.7,10.29c68,9.64,141.38,11.17,200.75-23.34,8.87-5.16,17.48-11.23,23.5-19.54s9.15-19.21,6.22-29.05c-2.4-8.09-8.49-14.52-14.82-20.1-35.91-31.62-84.75-45.2-132.53-47.68A341.1,341.1,0,0,0,39.36,22.28"/></svg>