<svg id="f02f29f0-6a34-4c3a-8c3d-6187768802bf" data-name="Calque 1" xmlns="http://www.w3.org/2000/svg" viewBox="0 0 487.69 250.17"><defs><style>.b350fbf9-7a78-4c3c-b59e-c3f4d6e4c4ee{fill:none;stroke:#7287ff;stroke-linecap:round;stroke-linejoin:round;stroke-width:24px;}</style></defs><path class="b350fbf9-7a78-4c3c-b59e-c3f4d6e4c4ee" d="M126.34,50.06c-8.63-1.79-11.92-2.76-22.86-3.32s-22.52.39-31.71,7S56.85,74.35,61.55,85.41c-12.08,5.12-24.42,10.4-34.27,19.73s-16.92,23.65-14.95,37.91,15.36,26.44,27.76,22.39c-4.4,20.9,2.14,45.48,18.65,56.48s42,2.85,47.43-17.74c21.51,19.09,49.21,27,76.33,31.94,10.34,1.89,21.11,3.4,31.19.17S233,223.87,233.92,212.2c14.85,10.52,33.1,12.77,50.65,13.92,12,.79,24.42,1.12,35.71-3.54s21.34-15.45,22.49-28.83c18.58,5.76,37.67,11.58,56.86,9.51s38.79-13.83,45.8-33.88c12.83-5,23.47-16.57,28.25-30.77,3.46-10.27,2.94-24-5.42-29.72,3.54-24.76-18.05-49.8-40.33-46.78A108.73,108.73,0,0,0,352.14,48.6c-17.32-13.29-36.13-25.18-56.86-29s-43.78,1.6-58.14,18.72c-11.21-10.54-23-21.41-37.23-25.19s-31.69,2-37.43,17C161,34,160,38.67,156.6,40.33c-4.64,2.26-9.28-2.87-14.08-4.69-7.76-2.93-17,5.31-16.18,14.42"/></svg>