<svg data-name="Blob" xmlns="http://www.w3.org/2000/svg" viewBox="0 0 264.7 242.61" preserveAspectRatio="xMidYMid"><path class="fill" d="M92.66,33.73c-25.25,2-47.87,14.73-53.48,39.78-1.76,7.84-1.63,16-2.49,23.94C34.27,119.8,24.06,141.06,24,163.54a35.31,35.31,0,0,0,2.38,14.17c2.71,6.27,8,11,13.49,15.1a130.63,130.63,0,0,0,72.89,25.73c6.43.24,13,0,19.13-1.83,13-3.8,22.91-13.89,32.87-23a318,318,0,0,1,33-26.37c12.59-8.76,26.21-17,34.63-29.8a50.93,50.93,0,0,0,8.28-29.9c-.13-3.26-.63-6.64-2.49-9.32a18.42,18.42,0,0,0-6.37-5.19c-9.29-5.26-19.68-8.53-28.51-14.53-9.9-6.73-17.26-16.48-25.38-25.28C164,38.24,146.06,25.12,125.58,24c-11.64-.62-10.15,7-32.92,9.69"/><path class="stroke" d="M92.66,9.73a108.5,108.5,0,0,0-24.44,4.33,113,113,0,0,0-13.84,5.62A57.86,57.86,0,0,0,46.84,24a88.86,88.86,0,0,0-11.38,9A81.65,81.65,0,0,0,26.19,44.1a45.26,45.26,0,0,0-4.48,7.63,82.35,82.35,0,0,0-5.34,14c-2.86,11.28-2.48,23-4,34.41l.86-6.38c-1.25,9-3.59,17.79-5.92,26.56C6.14,124.72,5,129.11,4,133.53c-1.45,6.36-2.4,12.76-3.21,19.23a74.81,74.81,0,0,0,.9,26.17A53,53,0,0,0,6,190.57c1.69,3.56,4.33,6.62,6.73,9.69a42.28,42.28,0,0,0,4.14,4.53c1.5,1.42,3.09,2.73,4.72,4,3.18,2.47,6.34,5,9.65,7.25a129.48,129.48,0,0,0,22.24,12.42c9.68,4.22,19.43,7.95,29.76,10.24,6.14,1.37,12.38,2.2,18.63,3a125.63,125.63,0,0,0,13,.93,92.29,92.29,0,0,0,20-1.9,42.18,42.18,0,0,0,6.32-1.81,96.27,96.27,0,0,0,10.88-4.75c5.26-2.75,9.87-6.46,14.53-10.09,3.26-2.54,6.35-5.28,9.39-8.07,6.67-6.1,13.32-12.18,20.35-17.86,1.82-1.48,3.67-2.94,5.52-4.37L197,197.5c8-6.18,16.42-11.75,24.68-17.58,5.33-3.77,10.59-7.7,15.53-12a71.35,71.35,0,0,0,9.67-10,96.88,96.88,0,0,0,7.48-10.33,91,91,0,0,0,5.6-12.11c2.65-6.49,3.62-13.19,4.42-20.13a51.3,51.3,0,0,0,.3-7.33,64.61,64.61,0,0,0-.68-6.49,37.39,37.39,0,0,0-1.12-6.38c-1.88-5.91-4.89-11.6-9.5-15.86-1.1-1-2.37-1.91-3.54-2.81s-2.47-2-3.79-2.84c-1-.66-2.05-1.25-3.11-1.83-10-5.49-21.12-9-30.3-16l4.86,3.75C210.21,54,204.28,46.86,198.18,40c-2.92-3.29-5.92-6.53-9.1-9.58a167.12,167.12,0,0,0-14.57-12.12A96.72,96.72,0,0,0,146.73,3.77,86,86,0,0,0,128.38.26,33.79,33.79,0,0,0,123.45,0c-.49,0-1,.06-1.48.12a74.26,74.26,0,0,0-7.72,1.08,32.71,32.71,0,0,0-5.64,2.1,57.8,57.8,0,0,0-5.42,2.49C101.07,7,99,8.15,96.76,9.1l5.74-2.42a58.39,58.39,0,0,1-14.83,3.74l6.38-.86-1.39.17a18,18,0,0,0-9.24,2.07,18,18,0,0,0-7.73,5,18,18,0,0,0-5,7.72,18.17,18.17,0,0,0-2.07,9.25l.86,6.38A24,24,0,0,0,75.69,50.7l4.86,3.75a23.85,23.85,0,0,0,12.11,3.28,124.93,124.93,0,0,0,16.19-2.62,81.59,81.59,0,0,0,12.47-4.7c3-1.31,5.68-3.15,8.65-4.43l-5.73,2.42a16.22,16.22,0,0,1,3.92-1.1l-6.38.86a31.59,31.59,0,0,1,8.18.29l-6.38-.85a59.82,59.82,0,0,1,14.83,4.15l-5.73-2.42A82.37,82.37,0,0,1,150.6,60l-4.85-3.76a122,122,0,0,1,13,11.7c4.12,4.27,7.94,8.83,11.92,13.24,2,2.22,4,4.41,6.19,6.5a118.44,118.44,0,0,0,11.57,9.64,84.7,84.7,0,0,0,16,9.18c3.24,1.49,6.5,2.92,9.71,4.47a54.93,54.93,0,0,1,9,5.13l-4.85-3.75a15,15,0,0,1,2.63,2.6l-3.75-4.86a13,13,0,0,1,1.39,2.47l-2.42-5.74a18.6,18.6,0,0,1,1.1,4.33l-.85-6.38a46.42,46.42,0,0,1-.16,11.48l.86-6.38a53.28,53.28,0,0,1-3.62,13.3l2.42-5.73a52.87,52.87,0,0,1-6.62,11.29l3.75-4.86a80.29,80.29,0,0,1-14.53,14l4.86-3.75c-8.6,6.6-17.83,12.33-26.51,18.82a387.92,387.92,0,0,0-31.2,25.75c-4.34,4-8.67,8-13.35,11.68l4.85-3.76a59.88,59.88,0,0,1-12.81,7.74l5.74-2.42a44.33,44.33,0,0,1-11,3l6.38-.85c-8.28,1.09-16.82.51-25.08-.59l6.38.86a132.7,132.7,0,0,1-33.41-9.16l5.74,2.42a128.8,128.8,0,0,1-28.41-16.51l4.85,3.75a49.3,49.3,0,0,1-8.86-8.52l3.76,4.86a27.87,27.87,0,0,1-3.32-5.58l2.42,5.73a29.51,29.51,0,0,1-2-7.38l.85,6.38a69.62,69.62,0,0,1,.39-18L48,158.7c1.3-9.58,3.87-18.92,6.34-28.25A211.78,211.78,0,0,0,60.83,96c.55-5.76.68-11.55,1.43-17.29l-.85,6.38A53.39,53.39,0,0,1,65,71.61l-2.42,5.74a46.91,46.91,0,0,1,5.78-9.93l-3.75,4.86a48.51,48.51,0,0,1,8.61-8.63l-4.86,3.76A58.29,58.29,0,0,1,81,60L75.3,62.45A74.86,74.86,0,0,1,94.12,57.4l-6.38.86c1.64-.22,3.28-.4,4.92-.53a18,18,0,0,0,9.25-2.07,17.85,17.85,0,0,0,7.72-5,18,18,0,0,0,5-7.72,18.06,18.06,0,0,0,2.06-9.25l-.85-6.38a23.89,23.89,0,0,0-6.18-10.59c-4.47-4.11-10.67-7.53-17-7Z"/></svg>